<svg enable-background="new 0 0 100 100" viewBox="0 0 100 100" xmlns="http://www.w3.org/2000/svg" xmlns:xlink="http://www.w3.org/1999/xlink"><linearGradient id="SVGID_1_" gradientUnits="userSpaceOnUse" x1="16.766" x2="83.234" y1="16.766" y2="83.234"><stop offset="0" stop-color="#90f7ec"></stop><stop offset="1" stop-color="#32ccbc"></stop></linearGradient><g id="Layer_6"><path d="m50 97c-25.957 0-47-21.043-47-47 0-25.957 21.043-47 47-47 25.957 0 47 21.043 47 47 0 25.957-21.043 47-47 47z" fill="url(#SVGID_1_)" style="fill: rgb(109, 99, 255);"></path></g><g id="Layer_8"><path d="m60 23h-20c-9.37 0-17 7.63-17 17v20c0 9.37 7.63 17 17 17h20c9.37 0 17-7.63 17-17v-20c0-9.37-7.63-17-17-17zm-18.29 31.71-5 5c-.2.19-.45.29-.71.29s-.51-.1-.71-.29l-2-2c-.39-.39-.39-1.03 0-1.42s1.03-.39 1.42 0l1.29 1.3 4.29-4.3c.39-.39 1.03-.39 1.42 0s.39 1.03 0 1.42zm0-13-5 5c-.2.19-.45.29-.71.29s-.51-.1-.71-.29l-2-2c-.39-.39-.39-1.03 0-1.42s1.03-.39 1.42 0l1.29 1.3 4.29-4.3c.39-.39 1.03-.39 1.42 0s.39 1.03 0 1.42zm24.29 16.29h-21c-.55 0-1-.45-1-1s.45-1 1-1h21c.55 0 1 .45 1 1s-.45 1-1 1zm0-13h-21c-.55 0-1-.45-1-1s.45-1 1-1h21c.55 0 1 .45 1 1s-.45 1-1 1z" fill="#fff"></path></g></svg>